Coordinates
version=1
nRows=24
nColumns=24
inDegrees=yes

Units are S.I. units (second, meters, Newtons, ...)
Angles are in degrees.

endheader
time	pelvis_tilt	pelvis_list	pelvis_rotation	pelvis_tx	pelvis_ty	pelvis_tz	hip_flexion_r	hip_adduction_r	hip_rotation_r	knee_angle_r	ankle_angle_r	subtalar_angle_r	mtp_angle_r	hip_flexion_l	hip_adduction_l	hip_rotation_l	knee_angle_l	ankle_angle_l	subtalar_angle_l	mtp_angle_l	lumbar_extension	lumbar_bending	lumbar_rotation
      7.19000000	     13.50561446	     -0.10458840	    -12.98123250	      2.50508985	      0.82936060	     -0.23992790	      3.63884316	      0.11458015	      3.04295782	    -67.05633745	      6.80924356	     -5.35390214	      0.00000000	    -11.36390835	      7.11396947	     -3.83678814	     -6.95742540	     11.73757169	    -11.37214213	      0.00000000	    -32.09223162	     -2.07099677	      4.13893482
      7.20000000	     13.24398047	     -0.53301466	    -12.32063697	      2.51548322	      0.82986096	     -0.24056636	      5.52218573	      0.94650347	      2.44155615	    -66.41082763	      8.04375453	     -5.13808914	      0.00000000	    -12.43101447	      6.67766825	     -3.29268047	     -6.10631295	     12.04110430	    -11.26101854	      0.00000000	    -32.13500237	     -1.31731725	      3.56721276
      7.21000000	     13.02587001	     -0.76980963	    -11.47546078	      2.52595298	      0.83009212	     -0.24141339	      7.30494871	      1.47206538	      1.67877694	    -65.44574603	      9.02378044	     -4.91860132	      0.00000000	    -13.49187392	      6.38594082	     -2.48564494	     -5.26847015	     12.28886923	    -11.17068357	      0.00000000	    -32.15103316	     -0.67809082	      2.66474079
      7.22000000	     12.82779928	     -0.99288867	    -10.70987673	      2.53631604	      0.83008071	     -0.24207744	      8.97600613	      1.95338148	      1.06191630	    -64.12606255	      9.81784380	     -4.75704558	      0.00000000	    -14.53016475	      6.09526214	     -1.78038159	     -4.48391153	     12.55489327	    -11.12007232	      0.00000000	    -32.21013888	     -0.12286042	      1.89884784
      7.23000000	     12.66461122	     -1.15714465	     -9.93814372	      2.54662050	      0.82985991	     -0.24265967	     10.49988200	      2.32290148	      0.50987037	    -62.43790853	     10.42619376	     -4.66550887	      0.00000000	    -15.55477600	      5.83750710	     -1.08757753	     -3.75875920	     12.82096068	    -11.06777908	      0.00000000	    -32.31807039	      0.34839732	      1.07679877
      7.24000000	     12.53052031	     -1.26204738	     -9.17345919	      2.55698305	      0.82941243	     -0.24321257	     11.86207362	      2.56000280	      0.00235302	    -60.37710936	     10.85309179	     -4.63724145	      0.00000000	    -16.59119097	      5.62488382	     -0.43179167	     -3.05123427	     13.13864977	    -10.97529391	      0.00000000	    -32.42361519	      0.75743236	      0.29624793
      7.25000000	     12.49046923	     -1.34955795	     -8.38762397	      2.56732680	      0.82885579	     -0.24371049	     12.94725530	      2.71774852	     -0.45790672	    -57.88582175	     11.13249175	     -4.69709007	      0.00000000	    -17.70671816	      5.41427864	      0.26216135	     -2.37218453	     13.40002692	    -11.02359547	      0.00000000	    -32.65844807	      1.13654985	     -0.58088654
      7.26000000	     12.40833631	     -1.36689256	     -7.62266574	      2.57772406	      0.82805071	     -0.24406834	     13.91173714	      2.77294832	     -0.83098172	    -54.99826137	     11.21938194	     -4.78874653	      0.00000000	    -18.75220386	      5.23527255	      0.91171237	     -1.73740456	     13.72971817	    -10.89292286	      0.00000000	    -32.82216977	      1.41973865	     -1.40703890
      7.27000000	     12.40724223	     -1.36454755	     -6.85172460	      2.58821291	      0.82713303	     -0.24438951	     14.57166943	      2.74828645	     -1.16773209	    -51.65846437	     11.17854634	     -4.88560162	      0.00000000	    -19.88422905	      5.06354995	      1.54754738	     -1.11037524	     14.04615036	    -10.81419020	      0.00000000	    -33.06502838	      1.68964329	     -2.25507274
      7.28000000	     12.45843454	     -1.33505709	     -6.10107369	      2.59884884	      0.82607563	     -0.24463595	     14.94640422	      2.65778594	     -1.43483936	    -47.87402306	     11.01824227	     -4.91565225	      0.00000000	    -21.07992938	      4.90587100	      2.15967847	     -0.48855196	     14.34610985	    -10.76127575	      0.00000000	    -33.33435347	      1.92786180	     -3.09257124
      7.29000000	     12.55098584	     -1.27862620	     -5.37508091	      2.60964458	      0.82487917	     -0.24478842	     15.04045703	      2.51214996	     -1.63879491	    -43.65536637	     10.74731103	     -4.78407863	      0.00000000	    -22.33424643	      4.75646858	      2.73951468	      0.13807449	     14.59854755	    -10.70913813	      0.00000000	    -33.63035346	      2.12290317	     -3.91272543
      7.30000000	     12.59871574	     -1.12641122	     -4.66786726	      2.62064534	      0.82339595	     -0.24484010	     14.95782547	      2.26050319	     -1.77797905	    -39.04692090	     10.43703434	     -4.50166178	      0.00000000	    -23.52149104	      4.67317780	      3.31060723	      0.70368955	     14.93672364	    -10.58815631	      0.00000000	    -33.81061312	      2.21494642	     -4.74103352
      7.31000000	     12.69159437	     -0.91978589	     -3.97890113	      2.63188800	      0.82177904	     -0.24483468	     14.59572901	      1.93714410	     -1.84894099	    -34.08902375	     10.06331911	     -3.90587004	      0.00000000	    -24.76852416	      4.62429355	      3.85226358	      1.25477503	     15.21986313	    -10.43167143	      0.00000000	    -33.99387176	      2.24922421	     -5.57933013
      7.32000000	     12.86608468	     -0.66092698	     -3.34895973	      2.64334667	      0.82004326	     -0.24472273	     13.95151785	      1.56328245	     -1.77782103	    -28.88469720	      9.63839470	     -2.94010749	      0.00000000	    -26.11620301	      4.62066329	      4.38533504	      1.78686590	     15.44342620	    -10.28234467	      0.00000000	    -34.23816251	      2.20768130	     -6.39891743
      7.33000000	     12.93989014	     -0.27481547	     -2.70183690	      2.65510829	      0.81799747	     -0.24456483	     13.27204410	      1.05315762	     -1.67875625	    -23.57509838	      9.22641950	     -1.68646587	      0.00000000	    -27.33013739	      4.69211608	      4.94494675	      2.22619624	     15.72669993	    -10.02556436	      0.00000000	    -34.28464966	      2.04813562	     -7.27352296
      7.34000000	     13.01805551	      0.23159925	     -2.06351540	      2.66710582	      0.81577959	     -0.24431132	     12.49324133	      0.42360384	     -1.45531554	    -18.30674713	      8.81155790	     -0.22938714	      0.00000000	    -28.52234878	      4.84425604	      5.51790612	      2.56957758	     16.00927493	     -9.68229291	      0.00000000	    -34.28575463	      1.74402658	     -8.17981918
      7.35000000	     13.02775942	      0.88655116	     -1.52626273	      2.67916732	      0.81335986	     -0.24391158	     11.78155440	     -0.34516194	     -0.89361582	    -13.29659399	      8.31028232	      1.34048418	      0.00000000	    -29.58302105	      5.14730559	      6.08466162	      2.77465794	     16.24863028	     -9.29822791	      0.00000000	    -34.22632821	      1.23779123	     -9.06971806
      7.36000000	     13.11532124	      1.47791710	     -0.93631506	      2.69164143	      0.81095635	     -0.24352746	     10.92161530	     -1.07990226	     -0.36203405	     -8.62693738	      7.86220539	      2.95691038	      0.00000000	    -30.74834447	      5.32239083	      6.66703087	      2.93663647	     16.50178737	     -8.81652562	      0.00000000	    -34.18144459	      0.82135940	     -9.92122742
      7.37000000	     13.35022253	      1.89629961	     -0.31726111	      2.70450767	      0.80872053	     -0.24307728	      9.88787385	     -1.63917764	      0.04719827	     -4.48470772	      7.48437464	      4.48604358	      0.00000000	    -32.08481428	      5.26454727	      7.17895791	      3.04835567	     16.78316093	     -8.17006483	      0.00000000	    -34.24026607	      0.58594610	    -10.59904464
      7.38000000	     13.47444227	      2.35643195	      0.20236416	      2.71730408	      0.80649035	     -0.24252236	      9.13560916	     -2.22724302	      0.61658877	     -1.18407013	      7.20948450	      5.79946914	      0.00000000	    -33.18279092	      5.27245611	      7.59612770	      2.94563885	     17.01129041	     -7.48734046	      0.00000000	    -34.23613239	      0.27018532	    -11.18685301
      7.39000000	     13.65712092	      2.63184642	      0.67874677	      2.73021963	      0.80452903	     -0.24185354	      8.46893486	     -2.58681553	      1.08087737	      1.19875069	      7.11151746	      6.90124811	      0.00000000	    -34.27020722	      5.09873138	      7.83887146	      2.70022336	     17.22885421	     -6.67831442	      0.00000000	    -34.31523910	      0.12618040	    -11.57638069
      7.40000000	     13.85855395	      2.77318664	      1.08671115	      2.74313345	      0.80285912	     -0.24103510	      7.97928531	     -2.75044032	      1.49103319	      2.56451558	      7.19437111	      7.72173358	      0.00000000	    -35.27558441	      4.81223905	      8.00098546	      2.28559241	     17.32001814	     -5.90259986	      0.00000000	    -34.45977229	      0.08273369	    -11.79225188
      7.41000000	     14.14710294	      2.49795801	      1.45006831	      2.75646793	      0.80150977	     -0.24001807	      7.53848765	     -2.38154447	      1.63573527	      2.97645301	      7.37600982	      8.26599775	      0.00000000	    -36.35625126	      4.14232870	      7.81183463	      1.82984572	     17.45031660	     -4.96123191	      0.00000000	    -34.62749980	      0.43626312	    -11.62847288
      7.42000000	     14.50421777	      2.16315815	      1.72628179	      2.76978584	      0.80048719	     -0.23885988	      7.22966436	     -1.88187572	      1.75942625	      2.42179833	      7.62349009	      8.49604497	      0.00000000	    -37.36585538	      3.47130333	      7.42092323	      1.12786972	     17.47878868	     -3.88963205	      0.00000000	    -34.89894988	      0.82455238	    -11.42077567
